<svg xmlns="http://www.w3.org/2000/svg" width="1920" height="1080" viewBox="0 0 1920 1080">
  <defs>
    <linearGradient id="wall" x1="0%" y1="0%" x2="0%" y2="100%">
      <stop offset="0%" stop-color="#e8eef5"/>
      <stop offset="100%" stop-color="#d4dce8"/>
    </linearGradient>
    <linearGradient id="floor" x1="0%" y1="0%" x2="0%" y2="100%">
      <stop offset="0%" stop-color="#c8d0da"/>
      <stop offset="100%" stop-color="#aeb8c4"/>
    </linearGradient>
    <linearGradient id="desk" x1="0%" y1="0%" x2="100%" y2="0%">
      <stop offset="0%" stop-color="#8fa3b8"/>
      <stop offset="100%" stop-color="#7a90a6"/>
    </linearGradient>
  </defs>
  <rect width="1920" height="1080" fill="url(#wall)"/>
  <rect y="780" width="1920" height="300" fill="url(#floor)"/>
  <rect x="0" y="760" width="1920" height="24" fill="#b8c4d0"/>
  <!-- Estante / biblioteca -->
  <rect x="120" y="180" width="420" height="520" rx="4" fill="#f5f8fb" stroke="#c5d0dc" stroke-width="2"/>
  <rect x="140" y="220" width="380" height="8" fill="#d8e2ec"/>
  <rect x="140" y="340" width="380" height="8" fill="#d8e2ec"/>
  <rect x="140" y="460" width="380" height="8" fill="#d8e2ec"/>
  <rect x="150" y="240" width="45" height="90" rx="2" fill="#5b8fc9"/>
  <rect x="205" y="250" width="38" height="80" rx="2" fill="#6ba88a"/>
  <rect x="253" y="245" width="42" height="85" rx="2" fill="#9b7bb8"/>
  <rect x="305" y="255" width="40" height="75" rx="2" fill="#c9856a"/>
  <rect x="355" y="248" width="44" height="82" rx="2" fill="#7a9eb8"/>
  <rect x="150" y="360" width="50" height="88" rx="2" fill="#6ba88a"/>
  <rect x="210" y="365" width="42" height="83" rx="2" fill="#5b8fc9"/>
  <rect x="262" y="358" width="46" height="90" rx="2" fill="#b8956a"/>
  <!-- Diploma -->
  <rect x="620" y="200" width="280" height="200" rx="6" fill="#fafbfc" stroke="#c5d0dc" stroke-width="3"/>
  <rect x="650" y="240" width="220" height="12" rx="2" fill="#d8e2ec"/>
  <rect x="650" y="270" width="180" height="8" rx="2" fill="#e8eef5"/>
  <rect x="650" y="290" width="200" height="8" rx="2" fill="#e8eef5"/>
  <circle cx="760" cy="330" r="28" fill="none" stroke="#5b8fc9" stroke-width="3"/>
  <!-- Planta -->
  <ellipse cx="1580" cy="720" rx="90" ry="24" fill="#9aab9a"/>
  <rect x="1560" y="520" width="40" height="200" fill="#6b5344"/>
  <ellipse cx="1580" cy="480" rx="120" ry="100" fill="#5a9a6e"/>
  <ellipse cx="1520" cy="500" rx="80" ry="70" fill="#6bab7e"/>
  <ellipse cx="1640" cy="510" rx="75" ry="65" fill="#4d8a62"/>
  <!-- Escritorio -->
  <rect x="900" y="680" width="520" height="28" rx="4" fill="url(#desk)"/>
  <rect x="920" y="708" width="20" height="72" fill="#6a8094"/>
  <rect x="1380" y="708" width="20" height="72" fill="#6a8094"/>
  <!-- Monitor / credencial -->
  <rect x="1050" y="580" width="220" height="100" rx="6" fill="#2a3540"/>
  <rect x="1060" y="590" width="200" height="80" rx="2" fill="#4a6278"/>
  <!-- Silla (silueta) -->
  <ellipse cx="1150" cy="820" rx="100" ry="40" fill="#5a6878"/>
  <rect x="1100" y="740" width="100" height="80" rx="20" fill="#6a7888"/>
  <!-- Luz suave -->
  <ellipse cx="960" cy="120" rx="400" ry="80" fill="#ffffff" opacity="0.35"/>
</svg>
